<svg xmlns="http://www.w3.org/2000/svg" xmlns:xlink="http://www.w3.org/1999/xlink" width="300" zoomAndPan="magnify" viewBox="0 0 224.87999 60" height="80" preserveAspectRatio="xMidYMid meet" version="1.0"><defs><g/><clipPath id="ab57b35b35"><path d="M 92 21 L 120 21 L 120 59.984375 L 92 59.984375 Z M 92 21 " clip-rule="nonzero"/></clipPath><clipPath id="e895e2be8f"><path d="M 197.425781 5.609375 L 224.761719 5.609375 L 224.761719 21.351562 L 197.425781 21.351562 Z M 197.425781 5.609375 " clip-rule="nonzero"/></clipPath></defs><g fill="#f59e0b" fill-opacity="1"><g transform="translate(-0.00000000000004261, 47.705921)"><g><path d="M 18.796875 -1.359375 C 18.234375 -1.117188 17.550781 -0.847656 16.75 -0.546875 C 15.945312 -0.242188 15.082031 -0.00390625 14.15625 0.171875 C 13.238281 0.359375 12.3125 0.453125 11.375 0.453125 C 10.144531 0.453125 9.007812 0.234375 7.96875 -0.203125 C 6.9375 -0.640625 6.109375 -1.332031 5.484375 -2.28125 C 4.867188 -3.226562 4.5625 -4.472656 4.5625 -6.015625 L 4.5625 -21.109375 L 1.109375 -21.109375 L 1.109375 -26.28125 L 4.5625 -26.28125 L 4.5625 -34.796875 L 11.28125 -34.796875 L 11.28125 -26.28125 L 16.796875 -26.28125 L 16.796875 -21.109375 L 11.28125 -21.109375 L 11.28125 -8.265625 C 11.3125 -7.367188 11.5625 -6.71875 12.03125 -6.3125 C 12.5 -5.914062 13.082031 -5.71875 13.78125 -5.71875 C 14.488281 -5.71875 15.175781 -5.832031 15.84375 -6.0625 C 16.507812 -6.300781 17.046875 -6.503906 17.453125 -6.671875 Z M 18.796875 -1.359375 "/></g></g></g><g fill="#f59e0b" fill-opacity="1"><g transform="translate(19.249787, 47.705921)"><g><path d="M 1.25 -7.765625 C 1.25 -9.472656 1.722656 -10.96875 2.671875 -12.25 C 3.628906 -13.539062 4.957031 -14.535156 6.65625 -15.234375 C 8.363281 -15.941406 10.320312 -16.296875 12.53125 -16.296875 C 13.632812 -16.296875 14.753906 -16.210938 15.890625 -16.046875 C 17.023438 -15.878906 18.015625 -15.613281 18.859375 -15.25 L 18.859375 -16.640625 C 18.859375 -18.316406 18.363281 -19.601562 17.375 -20.5 C 16.382812 -21.40625 14.921875 -21.859375 12.984375 -21.859375 C 11.546875 -21.859375 10.175781 -21.609375 8.875 -21.109375 C 7.570312 -20.609375 6.203125 -19.875 4.765625 -18.90625 L 2.609375 -23.3125 C 4.347656 -24.445312 6.128906 -25.296875 7.953125 -25.859375 C 9.773438 -26.429688 11.6875 -26.71875 13.6875 -26.71875 C 17.425781 -26.71875 20.34375 -25.78125 22.4375 -23.90625 C 24.53125 -22.039062 25.578125 -19.367188 25.578125 -15.890625 L 25.578125 -7.515625 C 25.578125 -6.816406 25.703125 -6.316406 25.953125 -6.015625 C 26.203125 -5.710938 26.609375 -5.53125 27.171875 -5.46875 L 27.171875 0 C 26.578125 0.101562 26.035156 0.1875 25.546875 0.25 C 25.054688 0.3125 24.644531 0.34375 24.3125 0.34375 C 22.976562 0.34375 21.96875 0.046875 21.28125 -0.546875 C 20.59375 -1.148438 20.164062 -1.882812 20 -2.75 L 19.859375 -4.109375 C 18.722656 -2.640625 17.300781 -1.503906 15.59375 -0.703125 C 13.882812 0.0976562 12.144531 0.5 10.375 0.5 C 8.632812 0.5 7.070312 0.140625 5.6875 -0.578125 C 4.300781 -1.296875 3.210938 -2.28125 2.421875 -3.53125 C 1.640625 -4.789062 1.25 -6.203125 1.25 -7.765625 Z M 17.59375 -6.421875 C 17.96875 -6.816406 18.269531 -7.210938 18.5 -7.609375 C 18.738281 -8.015625 18.859375 -8.382812 18.859375 -8.71875 L 18.859375 -11.375 C 18.054688 -11.71875 17.1875 -11.976562 16.25 -12.15625 C 15.3125 -12.34375 14.425781 -12.4375 13.59375 -12.4375 C 11.851562 -12.4375 10.421875 -12.054688 9.296875 -11.296875 C 8.179688 -10.546875 7.625 -9.554688 7.625 -8.328125 C 7.625 -7.660156 7.804688 -7.023438 8.171875 -6.421875 C 8.535156 -5.816406 9.066406 -5.328125 9.765625 -4.953125 C 10.472656 -4.585938 11.3125 -4.40625 12.28125 -4.40625 C 13.28125 -4.40625 14.265625 -4.597656 15.234375 -4.984375 C 16.210938 -5.367188 17 -5.847656 17.59375 -6.421875 Z M 17.59375 -6.421875 "/></g></g></g><g fill="#f59e0b" fill-opacity="1"><g transform="translate(48.024216, 47.705921)"><g><path d="M 12.734375 0.5 C 10.492188 0.5 8.351562 0.132812 6.3125 -0.59375 C 4.28125 -1.332031 2.523438 -2.421875 1.046875 -3.859375 L 3.453125 -8.21875 C 5.023438 -6.945312 6.570312 -6.007812 8.09375 -5.40625 C 9.613281 -4.8125 11.078125 -4.515625 12.484375 -4.515625 C 13.785156 -4.515625 14.828125 -4.75 15.609375 -5.21875 C 16.398438 -5.6875 16.796875 -6.390625 16.796875 -7.328125 C 16.796875 -7.953125 16.578125 -8.441406 16.140625 -8.796875 C 15.710938 -9.148438 15.085938 -9.457031 14.265625 -9.71875 C 13.441406 -9.988281 12.445312 -10.289062 11.28125 -10.625 C 9.34375 -11.257812 7.722656 -11.878906 6.421875 -12.484375 C 5.117188 -13.085938 4.140625 -13.847656 3.484375 -14.765625 C 2.828125 -15.679688 2.5 -16.859375 2.5 -18.296875 C 2.5 -20.035156 2.941406 -21.53125 3.828125 -22.78125 C 4.722656 -24.039062 5.960938 -25.019531 7.546875 -25.71875 C 9.128906 -26.425781 10.992188 -26.78125 13.140625 -26.78125 C 15.003906 -26.78125 16.769531 -26.484375 18.4375 -25.890625 C 20.113281 -25.304688 21.640625 -24.363281 23.015625 -23.0625 L 20.3125 -18.796875 C 18.96875 -19.835938 17.691406 -20.597656 16.484375 -21.078125 C 15.285156 -21.566406 14.070312 -21.8125 12.84375 -21.8125 C 12.132812 -21.8125 11.46875 -21.726562 10.84375 -21.5625 C 10.226562 -21.394531 9.726562 -21.117188 9.34375 -20.734375 C 8.96875 -20.347656 8.78125 -19.804688 8.78125 -19.109375 C 8.78125 -18.472656 8.953125 -17.976562 9.296875 -17.625 C 9.648438 -17.269531 10.1875 -16.957031 10.90625 -16.6875 C 11.625 -16.425781 12.5 -16.128906 13.53125 -15.796875 C 15.644531 -15.191406 17.425781 -14.570312 18.875 -13.9375 C 20.332031 -13.300781 21.425781 -12.523438 22.15625 -11.609375 C 22.894531 -10.691406 23.265625 -9.429688 23.265625 -7.828125 C 23.265625 -5.210938 22.3125 -3.171875 20.40625 -1.703125 C 18.5 -0.234375 15.941406 0.5 12.734375 0.5 Z M 12.734375 0.5 "/></g></g></g><g fill="#f59e0b" fill-opacity="1"><g transform="translate(72.788263, 47.705921)"><g><path d="M 18.796875 -1.359375 C 18.234375 -1.117188 17.550781 -0.847656 16.75 -0.546875 C 15.945312 -0.242188 15.082031 -0.00390625 14.15625 0.171875 C 13.238281 0.359375 12.3125 0.453125 11.375 0.453125 C 10.144531 0.453125 9.007812 0.234375 7.96875 -0.203125 C 6.9375 -0.640625 6.109375 -1.332031 5.484375 -2.28125 C 4.867188 -3.226562 4.5625 -4.472656 4.5625 -6.015625 L 4.5625 -21.109375 L 1.109375 -21.109375 L 1.109375 -26.28125 L 4.5625 -26.28125 L 4.5625 -34.796875 L 11.28125 -34.796875 L 11.28125 -26.28125 L 16.796875 -26.28125 L 16.796875 -21.109375 L 11.28125 -21.109375 L 11.28125 -8.265625 C 11.3125 -7.367188 11.5625 -6.71875 12.03125 -6.3125 C 12.5 -5.914062 13.082031 -5.71875 13.78125 -5.71875 C 14.488281 -5.71875 15.175781 -5.832031 15.84375 -6.0625 C 16.507812 -6.300781 17.046875 -6.503906 17.453125 -6.671875 Z M 18.796875 -1.359375 "/></g></g></g><g clip-path="url(#ab57b35b35)"><g fill="#f59e0b" fill-opacity="1"><g transform="translate(92.03805, 47.705921)"><g><path d="M 3.609375 5.109375 C 4.210938 5.242188 4.769531 5.359375 5.28125 5.453125 C 5.800781 5.554688 6.25 5.609375 6.625 5.609375 C 7.257812 5.609375 7.785156 5.445312 8.203125 5.125 C 8.617188 4.8125 9.023438 4.242188 9.421875 3.421875 C 9.828125 2.609375 10.25 1.46875 10.6875 0 L 0.296875 -26.28125 L 7.265625 -26.28125 L 14.34375 -6.875 L 20.5625 -26.28125 L 26.96875 -26.28125 L 15.9375 5.21875 C 15.539062 6.382812 14.929688 7.441406 14.109375 8.390625 C 13.296875 9.347656 12.273438 10.101562 11.046875 10.65625 C 9.828125 11.207031 8.46875 11.484375 6.96875 11.484375 C 6.4375 11.484375 5.898438 11.441406 5.359375 11.359375 C 4.828125 11.273438 4.242188 11.132812 3.609375 10.9375 Z M 3.609375 5.109375 "/></g></g></g></g><g fill="#000000" fill-opacity="1"><g transform="translate(119.625636, 47.705921)"><g><path d="M 15.25 0.5 C 13.132812 0.5 11.222656 0.140625 9.515625 -0.578125 C 7.816406 -1.296875 6.363281 -2.28125 5.15625 -3.53125 C 3.957031 -4.789062 3.03125 -6.226562 2.375 -7.84375 C 1.726562 -9.46875 1.40625 -11.179688 1.40625 -12.984375 C 1.40625 -15.492188 1.960938 -17.785156 3.078125 -19.859375 C 4.203125 -21.929688 5.804688 -23.59375 7.890625 -24.84375 C 9.984375 -26.09375 12.453125 -26.71875 15.296875 -26.71875 C 18.171875 -26.71875 20.625 -26.09375 22.65625 -24.84375 C 24.695312 -23.59375 26.257812 -21.9375 27.34375 -19.875 C 28.4375 -17.820312 28.984375 -15.609375 28.984375 -13.234375 C 28.984375 -12.835938 28.960938 -12.425781 28.921875 -12 C 28.890625 -11.582031 28.859375 -11.242188 28.828125 -10.984375 L 8.53125 -10.984375 C 8.65625 -9.640625 9.046875 -8.46875 9.703125 -7.46875 C 10.359375 -6.46875 11.191406 -5.707031 12.203125 -5.1875 C 13.222656 -4.664062 14.320312 -4.40625 15.5 -4.40625 C 16.832031 -4.40625 18.09375 -4.734375 19.28125 -5.390625 C 20.46875 -6.046875 21.273438 -6.90625 21.703125 -7.96875 L 27.484375 -6.375 C 26.847656 -5.03125 25.9375 -3.835938 24.75 -2.796875 C 23.5625 -1.765625 22.164062 -0.957031 20.5625 -0.375 C 18.957031 0.207031 17.1875 0.5 15.25 0.5 Z M 8.375 -15.25 L 22.109375 -15.25 C 21.972656 -16.582031 21.597656 -17.738281 20.984375 -18.71875 C 20.367188 -19.707031 19.554688 -20.476562 18.546875 -21.03125 C 17.546875 -21.582031 16.425781 -21.859375 15.1875 -21.859375 C 13.988281 -21.859375 12.894531 -21.582031 11.90625 -21.03125 C 10.914062 -20.476562 10.113281 -19.707031 9.5 -18.71875 C 8.882812 -17.738281 8.507812 -16.582031 8.375 -15.25 Z M 8.375 -15.25 "/></g></g></g><g fill="#000000" fill-opacity="1"><g transform="translate(149.653297, 47.705921)"><g><path d="M 1.25 -7.765625 C 1.25 -9.472656 1.722656 -10.96875 2.671875 -12.25 C 3.628906 -13.539062 4.957031 -14.535156 6.65625 -15.234375 C 8.363281 -15.941406 10.320312 -16.296875 12.53125 -16.296875 C 13.632812 -16.296875 14.753906 -16.210938 15.890625 -16.046875 C 17.023438 -15.878906 18.015625 -15.613281 18.859375 -15.25 L 18.859375 -16.640625 C 18.859375 -18.316406 18.363281 -19.601562 17.375 -20.5 C 16.382812 -21.40625 14.921875 -21.859375 12.984375 -21.859375 C 11.546875 -21.859375 10.175781 -21.609375 8.875 -21.109375 C 7.570312 -20.609375 6.203125 -19.875 4.765625 -18.90625 L 2.609375 -23.3125 C 4.347656 -24.445312 6.128906 -25.296875 7.953125 -25.859375 C 9.773438 -26.429688 11.6875 -26.71875 13.6875 -26.71875 C 17.425781 -26.71875 20.34375 -25.78125 22.4375 -23.90625 C 24.53125 -22.039062 25.578125 -19.367188 25.578125 -15.890625 L 25.578125 -7.515625 C 25.578125 -6.816406 25.703125 -6.316406 25.953125 -6.015625 C 26.203125 -5.710938 26.609375 -5.53125 27.171875 -5.46875 L 27.171875 0 C 26.578125 0.101562 26.035156 0.1875 25.546875 0.25 C 25.054688 0.3125 24.644531 0.34375 24.3125 0.34375 C 22.976562 0.34375 21.96875 0.046875 21.28125 -0.546875 C 20.59375 -1.148438 20.164062 -1.882812 20 -2.75 L 19.859375 -4.109375 C 18.722656 -2.640625 17.300781 -1.503906 15.59375 -0.703125 C 13.882812 0.0976562 12.144531 0.5 10.375 0.5 C 8.632812 0.5 7.070312 0.140625 5.6875 -0.578125 C 4.300781 -1.296875 3.210938 -2.28125 2.421875 -3.53125 C 1.640625 -4.789062 1.25 -6.203125 1.25 -7.765625 Z M 17.59375 -6.421875 C 17.96875 -6.816406 18.269531 -7.210938 18.5 -7.609375 C 18.738281 -8.015625 18.859375 -8.382812 18.859375 -8.71875 L 18.859375 -11.375 C 18.054688 -11.71875 17.1875 -11.976562 16.25 -12.15625 C 15.3125 -12.34375 14.425781 -12.4375 13.59375 -12.4375 C 11.851562 -12.4375 10.421875 -12.054688 9.296875 -11.296875 C 8.179688 -10.546875 7.625 -9.554688 7.625 -8.328125 C 7.625 -7.660156 7.804688 -7.023438 8.171875 -6.421875 C 8.535156 -5.816406 9.066406 -5.328125 9.765625 -4.953125 C 10.472656 -4.585938 11.3125 -4.40625 12.28125 -4.40625 C 13.28125 -4.40625 14.265625 -4.597656 15.234375 -4.984375 C 16.210938 -5.367188 17 -5.847656 17.59375 -6.421875 Z M 17.59375 -6.421875 "/></g></g></g><g fill="#000000" fill-opacity="1"><g transform="translate(178.427726, 47.705921)"><g><path d="M 18.796875 -1.359375 C 18.234375 -1.117188 17.550781 -0.847656 16.75 -0.546875 C 15.945312 -0.242188 15.082031 -0.00390625 14.15625 0.171875 C 13.238281 0.359375 12.3125 0.453125 11.375 0.453125 C 10.144531 0.453125 9.007812 0.234375 7.96875 -0.203125 C 6.9375 -0.640625 6.109375 -1.332031 5.484375 -2.28125 C 4.867188 -3.226562 4.5625 -4.472656 4.5625 -6.015625 L 4.5625 -21.109375 L 1.109375 -21.109375 L 1.109375 -26.28125 L 4.5625 -26.28125 L 4.5625 -34.796875 L 11.28125 -34.796875 L 11.28125 -26.28125 L 16.796875 -26.28125 L 16.796875 -21.109375 L 11.28125 -21.109375 L 11.28125 -8.265625 C 11.3125 -7.367188 11.5625 -6.71875 12.03125 -6.3125 C 12.5 -5.914062 13.082031 -5.71875 13.78125 -5.71875 C 14.488281 -5.71875 15.175781 -5.832031 15.84375 -6.0625 C 16.507812 -6.300781 17.046875 -6.503906 17.453125 -6.671875 Z M 18.796875 -1.359375 "/></g></g></g><g fill="#000000" fill-opacity="1"><g transform="translate(197.677513, 47.705921)"><g><path d="M 12.734375 0.5 C 10.492188 0.5 8.351562 0.132812 6.3125 -0.59375 C 4.28125 -1.332031 2.523438 -2.421875 1.046875 -3.859375 L 3.453125 -8.21875 C 5.023438 -6.945312 6.570312 -6.007812 8.09375 -5.40625 C 9.613281 -4.8125 11.078125 -4.515625 12.484375 -4.515625 C 13.785156 -4.515625 14.828125 -4.75 15.609375 -5.21875 C 16.398438 -5.6875 16.796875 -6.390625 16.796875 -7.328125 C 16.796875 -7.953125 16.578125 -8.441406 16.140625 -8.796875 C 15.710938 -9.148438 15.085938 -9.457031 14.265625 -9.71875 C 13.441406 -9.988281 12.445312 -10.289062 11.28125 -10.625 C 9.34375 -11.257812 7.722656 -11.878906 6.421875 -12.484375 C 5.117188 -13.085938 4.140625 -13.847656 3.484375 -14.765625 C 2.828125 -15.679688 2.5 -16.859375 2.5 -18.296875 C 2.5 -20.035156 2.941406 -21.53125 3.828125 -22.78125 C 4.722656 -24.039062 5.960938 -25.019531 7.546875 -25.71875 C 9.128906 -26.425781 10.992188 -26.78125 13.140625 -26.78125 C 15.003906 -26.78125 16.769531 -26.484375 18.4375 -25.890625 C 20.113281 -25.304688 21.640625 -24.363281 23.015625 -23.0625 L 20.3125 -18.796875 C 18.96875 -19.835938 17.691406 -20.597656 16.484375 -21.078125 C 15.285156 -21.566406 14.070312 -21.8125 12.84375 -21.8125 C 12.132812 -21.8125 11.46875 -21.726562 10.84375 -21.5625 C 10.226562 -21.394531 9.726562 -21.117188 9.34375 -20.734375 C 8.96875 -20.347656 8.78125 -19.804688 8.78125 -19.109375 C 8.78125 -18.472656 8.953125 -17.976562 9.296875 -17.625 C 9.648438 -17.269531 10.1875 -16.957031 10.90625 -16.6875 C 11.625 -16.425781 12.5 -16.128906 13.53125 -15.796875 C 15.644531 -15.191406 17.425781 -14.570312 18.875 -13.9375 C 20.332031 -13.300781 21.425781 -12.523438 22.15625 -11.609375 C 22.894531 -10.691406 23.265625 -9.429688 23.265625 -7.828125 C 23.265625 -5.210938 22.3125 -3.171875 20.40625 -1.703125 C 18.5 -0.234375 15.941406 0.5 12.734375 0.5 Z M 12.734375 0.5 "/></g></g></g><g clip-path="url(#e895e2be8f)"><path fill="#f59e0b" d="M 222.714844 10.40625 C 222.753906 9.359375 222.5625 8.03125 222.1875 7.386719 C 221.671875 6.5 219.984375 5.902344 217.984375 5.902344 C 217.414062 5.902344 216.820312 5.949219 216.21875 6.042969 C 215.425781 6.167969 214.746094 6.355469 214.179688 6.566406 C 213.601562 6.0625 212.535156 5.609375 211.214844 5.609375 C 210.097656 5.609375 208.996094 5.917969 207.941406 6.53125 C 207.066406 7.035156 206.34375 7.59375 205.757812 8.121094 C 205.367188 8.03125 204.609375 7.886719 203.761719 7.886719 C 202.769531 7.886719 201.957031 8.085938 201.339844 8.476562 C 199.597656 9.585938 197.699219 15.15625 197.582031 15.875 C 197.464844 16.601562 198.433594 19.007812 198.886719 19.5 C 199.160156 19.800781 199.527344 19.949219 200.007812 19.949219 C 200.488281 19.949219 201.097656 19.808594 201.875 19.515625 C 201.953125 19.488281 202.023438 19.460938 202.09375 19.429688 C 202.25 19.789062 202.441406 20.398438 202.613281 21.050781 C 202.613281 21.046875 204.628906 20.335938 204.828125 20.257812 C 206.765625 19.488281 209.117188 19.15625 211.195312 19.117188 C 212.675781 19.089844 214.167969 19.242188 215.621094 19.527344 C 216.539062 19.703125 217.421875 19.953125 218.292969 20.273438 C 218.902344 20.496094 219.863281 21.214844 219.972656 20.203125 C 220.046875 19.484375 220.15625 18.714844 220.253906 18.03125 C 220.707031 17.988281 221.476562 17.800781 222.488281 17.109375 C 224.179688 15.957031 224.785156 15.300781 224.808594 14.609375 C 224.824219 14.015625 224.476562 12.003906 222.714844 10.40625 Z M 222.46875 16.246094 C 221.527344 16.773438 220.804688 17.03125 220.382812 17.15625 C 220.445312 16.710938 220.488281 16.398438 220.488281 16.277344 C 220.488281 16 219.730469 15.332031 218.074219 14.757812 C 218.882812 14.425781 219.988281 14.253906 220.003906 14.253906 L 219.996094 13.972656 C 219.84375 13.953125 219.683594 13.945312 219.515625 13.945312 C 218.542969 13.945312 217.554688 14.242188 217.003906 14.4375 C 216.398438 14.285156 215.714844 14.144531 214.9375 14.039062 C 215.425781 13.464844 216.121094 12.574219 216.160156 12.523438 L 216.484375 12.113281 L 215.996094 12.304688 C 215.21875 12.617188 214.359375 13.492188 213.96875 13.925781 C 213.683594 13.902344 213.394531 13.878906 213.09375 13.859375 C 212.71875 13.835938 212.34375 13.824219 211.976562 13.824219 C 210.789062 13.824219 209.742188 13.941406 208.839844 14.109375 C 208.449219 13.546875 207.5 12.226562 206.804688 11.742188 L 206.597656 11.921875 C 206.636719 11.996094 207.429688 13.519531 208.085938 14.273438 C 207.722656 14.359375 207.390625 14.453125 207.085938 14.550781 C 206.703125 14.394531 205.964844 14.152344 205.101562 14.152344 C 204.347656 14.152344 203.660156 14.339844 203.0625 14.707031 L 203.183594 14.960938 C 203.191406 14.960938 203.871094 14.726562 204.773438 14.726562 C 205.242188 14.726562 205.6875 14.789062 206.097656 14.914062 C 205.328125 15.234375 204.90625 15.507812 204.863281 15.535156 L 204.527344 15.757812 L 204.929688 15.796875 C 204.949219 15.796875 204.972656 15.796875 204.996094 15.796875 C 205.230469 15.796875 205.53125 15.699219 205.992188 15.550781 C 207.046875 15.207031 208.816406 14.628906 211.8125 14.628906 C 211.960938 14.628906 212.113281 14.632812 212.265625 14.632812 C 216.632812 14.71875 219.332031 16.300781 219.640625 16.570312 C 219.632812 16.679688 219.605469 16.949219 219.574219 17.25 C 219.507812 17.90625 219.40625 18.886719 219.324219 19.820312 C 218.335938 19.472656 215.546875 18.625 211.710938 18.570312 C 211.582031 18.570312 211.453125 18.570312 211.324219 18.570312 C 207.25 18.570312 204.367188 19.464844 203.148438 20.1875 C 203 19.707031 202.855469 19.351562 202.753906 19.128906 C 203.746094 18.617188 204.058594 18.144531 204.074219 18.117188 L 204.316406 17.734375 L 203.898438 17.914062 C 201.980469 18.726562 200.976562 19.042969 200.316406 19.042969 C 199.574219 19.042969 199.257812 18.613281 198.90625 17.765625 C 198.222656 16.132812 198.242188 15.75 199.078125 13.675781 C 199.941406 11.53125 200.902344 9.382812 202.296875 8.722656 C 202.699219 8.53125 203.183594 8.4375 203.730469 8.4375 C 204.324219 8.4375 204.875 8.550781 205.214844 8.640625 C 204.285156 9.589844 203.839844 10.347656 203.808594 10.402344 L 204.039062 10.566406 C 204.066406 10.535156 206.730469 7.546875 209.429688 6.699219 C 210 6.519531 210.546875 6.429688 211.0625 6.429688 C 212.089844 6.429688 212.773438 6.792969 213.121094 7.039062 C 212.277344 7.492188 211.871094 7.910156 211.84375 7.941406 L 212.011719 8.164062 C 213.730469 7.226562 215.824219 6.691406 217.765625 6.691406 C 219.390625 6.691406 220.683594 7.070312 221.226562 7.707031 C 222.375 9.050781 222.164062 11.617188 222.160156 11.644531 L 222.117188 12.136719 L 222.414062 11.742188 C 222.523438 11.597656 222.601562 11.359375 222.652344 11.0625 C 223.042969 11.5 223.710938 12.347656 223.925781 13.253906 C 224.210938 14.46875 224.066406 15.347656 222.46875 16.246094 Z M 222.46875 16.246094 " fill-opacity="1" fill-rule="nonzero"/></g></svg>