<svg xmlns="http://www.w3.org/2000/svg" xmlns:xlink="http://www.w3.org/1999/xlink" width="300" zoomAndPan="magnify" viewBox="0 0 224.87999 60" height="80" preserveAspectRatio="xMidYMid meet" version="1.0"><defs><g/><clipPath id="f9f30f4c24"><path d="M 200 7 L 224.761719 7 L 224.761719 23 L 200 23 Z M 200 7 " clip-rule="nonzero"/></clipPath><clipPath id="f2e3a64588"><path d="M 201.75 6.011719 L 225.398438 10.035156 L 223.132812 23.335938 L 199.488281 19.316406 Z M 201.75 6.011719 " clip-rule="nonzero"/></clipPath><clipPath id="5dc7449f86"><path d="M 201.75 6.011719 L 225.398438 10.035156 L 223.132812 23.335938 L 199.488281 19.316406 Z M 201.75 6.011719 " clip-rule="nonzero"/></clipPath></defs><g fill="#be185d" fill-opacity="1"><g transform="translate(0.233985, 43.628965)"><g><path d="M 12.671875 -16.546875 L 12.671875 0 L 5.09375 0 L 5.09375 -16.546875 L 1.015625 -16.546875 L 1.015625 -22.453125 L 5.09375 -22.453125 L 5.09375 -31 L 12.671875 -31 L 12.671875 -22.453125 L 16.75 -22.453125 L 16.75 -16.546875 Z M 12.671875 -16.546875 "/></g></g></g><g fill="#be185d" fill-opacity="1"><g transform="translate(17.995192, 43.628965)"><g><path d="M 20.609375 -11.203125 C 20.609375 -12.179688 20.367188 -13.09375 19.890625 -13.9375 C 19.421875 -14.789062 18.785156 -15.476562 17.984375 -16 C 17.191406 -16.53125 16.285156 -16.796875 15.265625 -16.796875 C 14.253906 -16.796875 13.347656 -16.53125 12.546875 -16 C 11.753906 -15.476562 11.117188 -14.789062 10.640625 -13.9375 C 10.160156 -13.09375 9.921875 -12.179688 9.921875 -11.203125 C 9.921875 -10.210938 10.160156 -9.289062 10.640625 -8.4375 C 11.117188 -7.59375 11.753906 -6.90625 12.546875 -6.375 C 13.347656 -5.851562 14.253906 -5.59375 15.265625 -5.59375 C 16.285156 -5.59375 17.191406 -5.851562 17.984375 -6.375 C 18.785156 -6.90625 19.421875 -7.59375 19.890625 -8.4375 C 20.367188 -9.289062 20.609375 -10.210938 20.609375 -11.203125 Z M 28.25 -22.40625 L 28.25 0 L 20.609375 0 L 20.609375 -2.703125 C 19.867188 -1.546875 18.757812 -0.71875 17.28125 -0.21875 C 15.800781 0.269531 14.351562 0.515625 12.9375 0.515625 C 10.832031 0.515625 8.929688 -0.0234375 7.234375 -1.109375 C 5.535156 -2.203125 4.203125 -3.640625 3.234375 -5.421875 C 2.265625 -7.203125 1.78125 -9.128906 1.78125 -11.203125 C 1.78125 -13.265625 2.265625 -15.1875 3.234375 -16.96875 C 4.203125 -18.757812 5.535156 -20.203125 7.234375 -21.296875 C 8.929688 -22.398438 10.832031 -22.953125 12.9375 -22.953125 C 14.351562 -22.953125 15.738281 -22.710938 17.09375 -22.234375 C 18.457031 -21.765625 19.628906 -20.921875 20.609375 -19.703125 L 20.609375 -22.40625 Z M 28.25 -22.40625 "/></g></g></g><g fill="#be185d" fill-opacity="1"><g transform="translate(49.293605, 43.628965)"><g><path d="M 23.828125 -15.625 L 16.34375 -15.625 C 16.207031 -16.644531 15.753906 -17.332031 14.984375 -17.6875 C 14.222656 -18.039062 13.46875 -18.21875 12.71875 -18.21875 C 11.976562 -18.21875 11.285156 -18.039062 10.640625 -17.6875 C 9.992188 -17.332031 9.671875 -16.816406 9.671875 -16.140625 C 9.671875 -15.628906 10.019531 -15.242188 10.71875 -14.984375 C 11.414062 -14.734375 12.3125 -14.53125 13.40625 -14.375 C 14.507812 -14.226562 15.679688 -14.035156 16.921875 -13.796875 C 18.160156 -13.554688 19.332031 -13.179688 20.4375 -12.671875 C 21.539062 -12.160156 22.441406 -11.4375 23.140625 -10.5 C 23.835938 -9.570312 24.1875 -8.3125 24.1875 -6.71875 C 24.1875 -4.957031 23.71875 -3.550781 22.78125 -2.5 C 21.84375 -1.445312 20.539062 -0.679688 18.875 -0.203125 C 17.21875 0.273438 15.304688 0.515625 13.140625 0.515625 C 10.929688 0.515625 8.9375 0.21875 7.15625 -0.375 C 5.375 -0.96875 3.9375 -1.914062 2.84375 -3.21875 C 1.757812 -4.53125 1.148438 -6.238281 1.015625 -8.34375 L 8.609375 -8.34375 C 8.609375 -7.226562 8.878906 -6.421875 9.421875 -5.921875 C 9.960938 -5.429688 10.601562 -5.117188 11.34375 -4.984375 C 12.09375 -4.847656 12.738281 -4.78125 13.28125 -4.78125 C 14.164062 -4.78125 14.921875 -4.941406 15.546875 -5.265625 C 16.179688 -5.585938 16.5 -6.054688 16.5 -6.671875 C 16.5 -7.453125 16.148438 -8.046875 15.453125 -8.453125 C 14.753906 -8.859375 13.851562 -9.160156 12.75 -9.359375 C 11.644531 -9.566406 10.472656 -9.769531 9.234375 -9.96875 C 7.992188 -10.175781 6.820312 -10.472656 5.71875 -10.859375 C 4.625 -11.253906 3.726562 -11.84375 3.03125 -12.625 C 2.332031 -13.40625 1.984375 -14.472656 1.984375 -15.828125 C 1.984375 -18.140625 2.878906 -19.90625 4.671875 -21.125 C 6.472656 -22.34375 9.226562 -22.953125 12.9375 -22.953125 C 15.882812 -22.953125 18.347656 -22.375 20.328125 -21.21875 C 22.316406 -20.070312 23.484375 -18.207031 23.828125 -15.625 Z M 23.828125 -15.625 "/></g></g></g><g fill="#be185d" fill-opacity="1"><g transform="translate(74.993926, 43.628965)"><g><path d="M 12.671875 -16.546875 L 12.671875 0 L 5.09375 0 L 5.09375 -16.546875 L 1.015625 -16.546875 L 1.015625 -22.453125 L 5.09375 -22.453125 L 5.09375 -31 L 12.671875 -31 L 12.671875 -22.453125 L 16.75 -22.453125 L 16.75 -16.546875 Z M 12.671875 -16.546875 "/></g></g></g><g fill="#be185d" fill-opacity="1"><g transform="translate(92.755133, 43.628965)"><g><path d="M 12.171875 12.71875 L 4.21875 12.71875 L 9.3125 0 L 8.046875 0 L -0.515625 -22.453125 L 7.171875 -22.453125 L 12.515625 -6.421875 L 17.875 -22.453125 L 25.609375 -22.453125 L 17.046875 0 Z M 12.171875 12.71875 "/></g></g></g><g fill="#000000" fill-opacity="1"><g transform="translate(117.853877, 43.628965)"><g><path d="M 9.984375 -13.890625 L 20 -13.890625 C 20 -13.890625 19.957031 -14.101562 19.875 -14.53125 C 19.789062 -14.957031 19.585938 -15.441406 19.265625 -15.984375 C 18.941406 -16.523438 18.441406 -17.007812 17.765625 -17.4375 C 17.085938 -17.863281 16.171875 -18.078125 15.015625 -18.078125 C 13.828125 -18.078125 12.894531 -17.863281 12.21875 -17.4375 C 11.539062 -17.007812 11.039062 -16.523438 10.71875 -15.984375 C 10.394531 -15.441406 10.191406 -14.957031 10.109375 -14.53125 C 10.023438 -14.101562 9.984375 -13.890625 9.984375 -13.890625 Z M 27.34375 -11.703125 C 27.34375 -11.472656 27.332031 -11.238281 27.3125 -11 C 27.289062 -10.757812 27.28125 -10.519531 27.28125 -10.28125 L 9.875 -10.28125 C 9.875 -9.4375 10.066406 -8.597656 10.453125 -7.765625 C 10.847656 -6.929688 11.410156 -6.25 12.140625 -5.71875 C 12.867188 -5.195312 13.726562 -4.9375 14.71875 -4.9375 C 16.070312 -4.9375 17.140625 -5.300781 17.921875 -6.03125 C 18.703125 -6.757812 19.109375 -7.53125 19.140625 -8.34375 L 26.921875 -8.34375 C 26.285156 -5.394531 24.863281 -3.179688 22.65625 -1.703125 C 20.445312 -0.222656 17.847656 0.515625 14.859375 0.515625 C 12.285156 0.515625 10.015625 0.03125 8.046875 -0.9375 C 6.078125 -1.90625 4.539062 -3.265625 3.4375 -5.015625 C 2.332031 -6.765625 1.78125 -8.828125 1.78125 -11.203125 C 1.78125 -13.546875 2.347656 -15.597656 3.484375 -17.359375 C 4.617188 -19.117188 6.171875 -20.488281 8.140625 -21.46875 C 10.109375 -22.457031 12.347656 -22.953125 14.859375 -22.953125 C 17.140625 -22.953125 19.21875 -22.507812 21.09375 -21.625 C 22.976562 -20.75 24.488281 -19.476562 25.625 -17.8125 C 26.769531 -16.15625 27.34375 -14.117188 27.34375 -11.703125 Z M 27.34375 -11.703125 "/></g></g></g><g fill="#000000" fill-opacity="1"><g transform="translate(146.963949, 43.628965)"><g><path d="M 20.609375 -11.203125 C 20.609375 -12.179688 20.367188 -13.09375 19.890625 -13.9375 C 19.421875 -14.789062 18.785156 -15.476562 17.984375 -16 C 17.191406 -16.53125 16.285156 -16.796875 15.265625 -16.796875 C 14.253906 -16.796875 13.347656 -16.53125 12.546875 -16 C 11.753906 -15.476562 11.117188 -14.789062 10.640625 -13.9375 C 10.160156 -13.09375 9.921875 -12.179688 9.921875 -11.203125 C 9.921875 -10.210938 10.160156 -9.289062 10.640625 -8.4375 C 11.117188 -7.59375 11.753906 -6.90625 12.546875 -6.375 C 13.347656 -5.851562 14.253906 -5.59375 15.265625 -5.59375 C 16.285156 -5.59375 17.191406 -5.851562 17.984375 -6.375 C 18.785156 -6.90625 19.421875 -7.59375 19.890625 -8.4375 C 20.367188 -9.289062 20.609375 -10.210938 20.609375 -11.203125 Z M 28.25 -22.40625 L 28.25 0 L 20.609375 0 L 20.609375 -2.703125 C 19.867188 -1.546875 18.757812 -0.71875 17.28125 -0.21875 C 15.800781 0.269531 14.351562 0.515625 12.9375 0.515625 C 10.832031 0.515625 8.929688 -0.0234375 7.234375 -1.109375 C 5.535156 -2.203125 4.203125 -3.640625 3.234375 -5.421875 C 2.265625 -7.203125 1.78125 -9.128906 1.78125 -11.203125 C 1.78125 -13.265625 2.265625 -15.1875 3.234375 -16.96875 C 4.203125 -18.757812 5.535156 -20.203125 7.234375 -21.296875 C 8.929688 -22.398438 10.832031 -22.953125 12.9375 -22.953125 C 14.351562 -22.953125 15.738281 -22.710938 17.09375 -22.234375 C 18.457031 -21.765625 19.628906 -20.921875 20.609375 -19.703125 L 20.609375 -22.40625 Z M 28.25 -22.40625 "/></g></g></g><g fill="#000000" fill-opacity="1"><g transform="translate(178.262361, 43.628965)"><g><path d="M 12.671875 -16.546875 L 12.671875 0 L 5.09375 0 L 5.09375 -16.546875 L 1.015625 -16.546875 L 1.015625 -22.453125 L 5.09375 -22.453125 L 5.09375 -31 L 12.671875 -31 L 12.671875 -22.453125 L 16.75 -22.453125 L 16.75 -16.546875 Z M 12.671875 -16.546875 "/></g></g></g><g fill="#000000" fill-opacity="1"><g transform="translate(196.023569, 43.628965)"><g><path d="M 23.828125 -15.625 L 16.34375 -15.625 C 16.207031 -16.644531 15.753906 -17.332031 14.984375 -17.6875 C 14.222656 -18.039062 13.46875 -18.21875 12.71875 -18.21875 C 11.976562 -18.21875 11.285156 -18.039062 10.640625 -17.6875 C 9.992188 -17.332031 9.671875 -16.816406 9.671875 -16.140625 C 9.671875 -15.628906 10.019531 -15.242188 10.71875 -14.984375 C 11.414062 -14.734375 12.3125 -14.53125 13.40625 -14.375 C 14.507812 -14.226562 15.679688 -14.035156 16.921875 -13.796875 C 18.160156 -13.554688 19.332031 -13.179688 20.4375 -12.671875 C 21.539062 -12.160156 22.441406 -11.4375 23.140625 -10.5 C 23.835938 -9.570312 24.1875 -8.3125 24.1875 -6.71875 C 24.1875 -4.957031 23.71875 -3.550781 22.78125 -2.5 C 21.84375 -1.445312 20.539062 -0.679688 18.875 -0.203125 C 17.21875 0.273438 15.304688 0.515625 13.140625 0.515625 C 10.929688 0.515625 8.9375 0.21875 7.15625 -0.375 C 5.375 -0.96875 3.9375 -1.914062 2.84375 -3.21875 C 1.757812 -4.53125 1.148438 -6.238281 1.015625 -8.34375 L 8.609375 -8.34375 C 8.609375 -7.226562 8.878906 -6.421875 9.421875 -5.921875 C 9.960938 -5.429688 10.601562 -5.117188 11.34375 -4.984375 C 12.09375 -4.847656 12.738281 -4.78125 13.28125 -4.78125 C 14.164062 -4.78125 14.921875 -4.941406 15.546875 -5.265625 C 16.179688 -5.585938 16.5 -6.054688 16.5 -6.671875 C 16.5 -7.453125 16.148438 -8.046875 15.453125 -8.453125 C 14.753906 -8.859375 13.851562 -9.160156 12.75 -9.359375 C 11.644531 -9.566406 10.472656 -9.769531 9.234375 -9.96875 C 7.992188 -10.175781 6.820312 -10.472656 5.71875 -10.859375 C 4.625 -11.253906 3.726562 -11.84375 3.03125 -12.625 C 2.332031 -13.40625 1.984375 -14.472656 1.984375 -15.828125 C 1.984375 -18.140625 2.878906 -19.90625 4.671875 -21.125 C 6.472656 -22.34375 9.226562 -22.953125 12.9375 -22.953125 C 15.882812 -22.953125 18.347656 -22.375 20.328125 -21.21875 C 22.316406 -20.070312 23.484375 -18.207031 23.828125 -15.625 Z M 23.828125 -15.625 "/></g></g></g><g clip-path="url(#f9f30f4c24)"><g clip-path="url(#f2e3a64588)"><g clip-path="url(#5dc7449f86)"><path fill="#be185d" d="M 222.824219 13.847656 C 223.011719 12.949219 223.039062 11.777344 222.8125 11.167969 C 222.496094 10.332031 221.128906 9.570312 219.410156 9.277344 C 218.917969 9.195312 218.398438 9.148438 217.871094 9.140625 C 217.167969 9.132812 216.554688 9.195312 216.039062 9.292969 C 215.613281 8.773438 214.761719 8.226562 213.625 8.03125 C 212.664062 7.871094 211.671875 7.976562 210.671875 8.347656 C 209.847656 8.65625 209.140625 9.027344 208.558594 9.398438 C 208.238281 9.261719 207.605469 9.027344 206.875 8.902344 C 206.023438 8.757812 205.292969 8.808594 204.707031 9.054688 C 203.042969 9.757812 200.589844 14.273438 200.386719 14.875 C 200.179688 15.484375 200.660156 17.695312 200.976562 18.1875 C 201.171875 18.488281 201.464844 18.667969 201.878906 18.738281 C 202.289062 18.808594 202.835938 18.773438 203.550781 18.636719 C 203.621094 18.625 203.683594 18.609375 203.75 18.597656 C 203.832031 18.929688 203.90625 19.480469 203.960938 20.070312 C 203.960938 20.066406 205.800781 19.746094 205.980469 19.707031 C 207.761719 19.332031 209.835938 19.390625 211.632812 19.660156 C 212.910156 19.851562 214.171875 20.203125 215.382812 20.660156 C 216.144531 20.949219 216.867188 21.289062 217.574219 21.695312 C 218.0625 21.976562 218.785156 22.734375 219.027344 21.878906 C 219.199219 21.273438 219.402344 20.625 219.589844 20.050781 C 219.984375 20.082031 220.675781 20.03125 221.648438 19.585938 C 223.269531 18.839844 223.886719 18.363281 224.007812 17.769531 C 224.113281 17.261719 224.105469 15.480469 222.824219 13.847656 Z M 221.753906 18.835938 C 220.867188 19.15625 220.207031 19.273438 219.828125 19.316406 C 219.945312 18.945312 220.027344 18.679688 220.046875 18.578125 C 220.085938 18.339844 219.53125 17.648438 218.191406 16.914062 C 218.933594 16.746094 219.914062 16.761719 219.925781 16.761719 L 219.960938 16.519531 C 219.832031 16.480469 219.695312 16.449219 219.550781 16.425781 C 218.714844 16.28125 217.816406 16.394531 217.316406 16.484375 C 216.820312 16.261719 216.246094 16.042969 215.597656 15.835938 C 216.101562 15.414062 216.832031 14.746094 216.871094 14.710938 L 217.210938 14.402344 L 216.761719 14.5 C 216.046875 14.652344 215.179688 15.28125 214.777344 15.597656 C 214.539062 15.535156 214.292969 15.472656 214.035156 15.410156 C 213.714844 15.335938 213.394531 15.273438 213.078125 15.21875 C 212.054688 15.042969 211.136719 14.992188 210.335938 15.003906 C 210.082031 14.460938 209.457031 13.1875 208.933594 12.667969 L 208.726562 12.792969 C 208.75 12.863281 209.207031 14.289062 209.660156 15.03125 C 209.335938 15.054688 209.039062 15.089844 208.761719 15.128906 C 208.453125 14.9375 207.855469 14.621094 207.109375 14.492188 C 206.460938 14.382812 205.84375 14.441406 205.277344 14.671875 L 205.34375 14.910156 C 205.347656 14.90625 205.96875 14.808594 206.742188 14.941406 C 207.148438 15.007812 207.523438 15.128906 207.859375 15.292969 C 207.148438 15.457031 206.742188 15.632812 206.703125 15.648438 L 206.382812 15.789062 L 206.722656 15.882812 C 206.742188 15.886719 206.761719 15.890625 206.78125 15.894531 C 206.980469 15.929688 207.257812 15.886719 207.671875 15.828125 C 208.632812 15.683594 210.242188 15.449219 212.820312 15.886719 C 212.945312 15.910156 213.078125 15.933594 213.207031 15.957031 C 216.957031 16.667969 219.046875 18.425781 219.277344 18.703125 C 219.25 18.792969 219.1875 19.023438 219.117188 19.28125 C 218.960938 19.832031 218.730469 20.664062 218.523438 21.453125 C 217.726562 21.011719 215.449219 19.871094 212.15625 19.265625 C 212.042969 19.246094 211.933594 19.226562 211.820312 19.207031 C 208.316406 18.609375 205.703125 18.960938 204.546875 19.402344 C 204.488281 18.964844 204.417969 18.640625 204.363281 18.433594 C 205.292969 18.136719 205.628906 17.777344 205.644531 17.757812 L 205.910156 17.460938 L 205.523438 17.554688 C 203.757812 17.972656 202.84375 18.097656 202.277344 18 C 201.636719 17.894531 201.429688 17.476562 201.25 16.695312 C 200.902344 15.191406 200.972656 14.867188 201.996094 13.199219 C 203.054688 11.480469 204.195312 9.773438 205.492188 9.410156 C 205.867188 9.304688 206.296875 9.292969 206.769531 9.371094 C 207.28125 9.457031 207.734375 9.636719 208.019531 9.765625 C 207.078125 10.445312 206.582031 11.035156 206.546875 11.074219 L 206.722656 11.25 C 206.75 11.226562 209.480469 9.046875 211.929688 8.710938 C 212.445312 8.640625 212.929688 8.644531 213.375 8.71875 C 214.257812 8.867188 214.792969 9.28125 215.054688 9.542969 C 214.265625 9.808594 213.855469 10.109375 213.824219 10.132812 L 213.9375 10.347656 C 215.554688 9.796875 217.4375 9.640625 219.105469 9.925781 C 220.503906 10.164062 221.5625 10.679688 221.9375 11.304688 C 222.730469 12.628906 222.171875 14.808594 222.164062 14.832031 L 222.054688 15.25 L 222.367188 14.953125 C 222.484375 14.84375 222.585938 14.652344 222.671875 14.402344 C 222.945312 14.835938 223.394531 15.664062 223.449219 16.472656 C 223.519531 17.5625 223.261719 18.296875 221.753906 18.835938 Z M 221.753906 18.835938 " fill-opacity="1" fill-rule="nonzero"/></g></g></g></svg>